<?xml version="1.0" encoding="utf-8"?>
<!-- Generator: Adobe Illustrator 24.0.3, SVG Export Plug-In . SVG Version: 6.00 Build 0)  -->
<svg version="1.1"
	 id="Layer_1" xmlns:cc="http://creativecommons.org/ns#" xmlns:dc="http://purl.org/dc/elements/1.1/" xmlns:inkscape="http://www.inkscape.org/namespaces/inkscape" xmlns:ns1="http://sozi.baierouge.fr" xmlns:rdf="http://www.w3.org/1999/02/22-rdf-syntax-ns#" xmlns:sodipodi="http://sodipodi.sourceforge.net/DTD/sodipodi-0.dtd" xmlns:svg="http://www.w3.org/2000/svg"
	 xmlns="http://www.w3.org/2000/svg" xmlns:xlink="http://www.w3.org/1999/xlink" x="0px" y="0px" viewBox="0 0 286.6 189.8"
	 style="enable-background:new 0 0 286.6 189.8;" xml:space="preserve">
<style type="text/css">
	.st0{fill:#FFFFFF;stroke:#000000;stroke-miterlimit:10;}
	.st1{stroke:#FFFFFF;stroke-miterlimit:10;}
</style>
<sodipodi:namedview  bordercolor="#666666" borderopacity="1" gridtolerance="10" guidetolerance="10" id="namedview251" inkscape:current-layer="Layer_1" inkscape:cx="143.2805" inkscape:cy="94.916" inkscape:pageopacity="0" inkscape:pageshadow="2" inkscape:window-height="480" inkscape:window-maximized="0" inkscape:window-width="646" inkscape:window-x="0" inkscape:window-y="0" inkscape:zoom="1.1306493" objecttolerance="10" pagecolor="#ffffff" showgrid="false">
	</sodipodi:namedview>
<g id="eggs">
	<g id="g237">
		<path id="path239" class="st0" d="M145.8,117.8C145.8,78,113.1,0,72.9,0S0,78,0,117.8c0,39.8,32.6,72,72.9,72
			S145.8,157.6,145.8,117.8L145.8,117.8z"/>
		<path id="path241" class="st1" d="M72.9,182c-19.7-2.3-36.3-9.7-47.9-21.7c-11.6-12-18.2-28.6-18.1-48.9c0-1.1,0.9-2,2.1-2
			c1.1,0,2.1,0.9,2.1,2c0,19.5,6.2,34.9,17,46.1c10.8,11.2,26.4,18.2,45.4,20.5c1.1,0.1,1.9,1.1,1.8,2.3c-0.1,1-1,1.8-2,1.8
			C73,182,72.9,182,72.9,182L72.9,182z"/>
	</g>
	<g id="g243">
		<path id="path245" class="st0" d="M167.4,189.8c40.3,0,119.2-32.3,119.2-72c0-39.8-78.9-72-119.2-72c-40.3,0-72.9,32.3-72.9,72
			C94.5,157.6,127.1,189.8,167.4,189.8L167.4,189.8z"/>
		<path id="path247" class="st1" d="M102.4,117.8c2.4-19.5,9.8-35.9,22-47.3c12.1-11.5,28.9-17.9,49.5-17.9c1.1,0,2.1,0.9,2.1,2
			c0,1.1-0.9,2-2.1,2c-19.7,0-35.3,6.1-46.7,16.8c-11.3,10.7-18.5,26.1-20.7,44.9c-0.1,1.1-1.2,1.9-2.3,1.8c-1-0.1-1.8-1-1.8-2
			C102.4,117.9,102.4,117.8,102.4,117.8L102.4,117.8z"/>
	</g>
	<path id="path249" class="st1" d="M94,116.8c0-19.3,7.9-36.8,20.7-49.5c4.6-4.6,9.9-8.5,15.6-11.7c-0.3-0.6-0.6-1.2-0.8-1.9
		c-0.3-0.6-0.6-1.2-0.9-1.9c-23.1,12.6-38.8,36.9-38.8,64.9c0,23,10.2,45,26.8,58.6c0.6-0.4,1.1-0.9,1.6-1.3
		c0.5-0.4,1.1-0.9,1.6-1.3c-1.9-1.6-3.4-4.7-5.2-6.5C101.9,153.6,94,136.1,94,116.8L94,116.8z"/>
</g>
</svg>
