<?xml version="1.0" encoding="utf-8"?>
<!-- Generator: Adobe Illustrator 24.0.3, SVG Export Plug-In . SVG Version: 6.00 Build 0)  -->
<svg version="1.1" id="Capa_1" xmlns="http://www.w3.org/2000/svg" xmlns:xlink="http://www.w3.org/1999/xlink" x="0px" y="0px"
	 viewBox="0 0 900 1200" style="enable-background:new 0 0 900 1200;" xml:space="preserve">
<style type="text/css">
	.st0{fill:#FFFFFF;stroke:#FFFFFF;stroke-miterlimit:10;}
</style>
<g transform="translate(0.000000,1280.000000) scale(0.100000,-0.100000)">
	<path class="st0" d="M4260,12240c-332-66-712-282-1075-608c-745-671-1491-1752-1993-2887C597,7398,384,6094,575,4963
		c110-651,354-1238,723-1743c160-218,436-511,644-683c446-368,995-647,1549-786c871-219,1810-147,2621,200
		c1297,555,2165,1731,2352,3190c57,449,52,1011-15,1469c-100,689-287,1340-588,2045c-101,235-337,713-466,940
		c-601,1063-1306,1904-1967,2348c-224,150-492,266-698,301C4606,12266,4377,12264,4260,12240z"/>
</g>
</svg>
