<?xml version="1.0" encoding="utf-8"?>
<!-- Generator: Adobe Illustrator 24.0.3, SVG Export Plug-In . SVG Version: 6.00 Build 0)  -->
<svg version="1.1" id="Capa_1" xmlns="http://www.w3.org/2000/svg" xmlns:xlink="http://www.w3.org/1999/xlink" x="0px" y="0px"
	 viewBox="0 0 900 1200" style="enable-background:new 0 0 900 1200;" xml:space="preserve">
<style type="text/css">
	.st0{fill:#282C34;stroke:#282C34;stroke-miterlimit:1;}
	.st1{fill:#FFFFFF;stroke:#282C34;stroke-miterlimit:1;}
</style>
<g transform="translate(0.000000,1280.000000) scale(0.100000,-0.100000)">
	<path class="st0" d="M4260,12240c-332-66-712-282-1075-608c-745-671-1491-1752-1993-2887C597,7398,384,6094,575,4963
		c110-651,354-1238,723-1743c160-218,436-511,644-683c446-368,995-647,1549-786c871-219,1810-147,2621,200
		c1297,555,2165,1731,2352,3190c57,449,52,1011-15,1469c-100,689-287,1340-588,2045c-101,235-337,713-466,940
		c-601,1063-1306,1904-1967,2348c-224,150-492,266-698,301C4606,12266,4377,12264,4260,12240z"/>
	<path class="st1" d="M4503.4,2026.5C4503.3,2026.5,4503.4,2026.5,4503.4,2026.5c-310.4,0-618.2,37.8-914.8,112.4
		c-496.4,124.5-990.6,375.5-1392,706.6c-181.8,150.4-435,418.9-576.1,611.1c-332.4,454.9-551.6,984.3-651.1,1573
		C791.9,6081,995.4,7309.9,1557.9,8583.4c480.9,1087.3,1189.3,2116,1894.8,2751.4c306,274.8,628.9,461.9,885.3,512.9l2.4,0.5
		c18.8,3.9,78.4,11.2,169.1,11.2c73.1,0,126.8-4.9,150.7-9.2l2.9-0.5c148.7-25.3,366.7-121.3,542.4-239
		c604.8-406.3,1276.2-1212.8,1841.4-2212.5c118.7-208.9,348.1-671.7,446.7-901.1c286.6-671.3,464.6-1289.5,559.7-1944.5
		c61.7-421.9,67.1-943.3,14-1361.2c-83-647.8-319.9-1252.1-684.9-1747c-362.9-492-856.6-881.3-1427.7-1125.7
		C5507.9,2127.6,5006,2026.5,4503.4,2026.5z"/>
</g>
</svg>
